# xmcd CD database file
#
# Track frame offsets:
#	183
#	23163
#	44175
#	60833
#	78243
#	102613
#	120975
#	137355
#	157710
#	176750
#
# Disc length: 2581 seconds
#
# Revision: 7
# Processed by: cddbd v1.5.2PL0 Copyright (c) Steve Scherf et al.
# Submitted via: CDex 1.70beta2
#
DISCID=740a130a
DTITLE=王靖雯  - 王靖雯 
DYEAR=1989
DGENRE=Chinese Pop
TTITLE0=無奈那天
TTITLE1=藉口
TTITLE2=有緣的話
TTITLE3=溫柔的手
TTITLE4=尾班車
TTITLE5=未平復的心
TTITLE6=仍是舊句子
TTITLE7=中間人
TTITLE8=愛聽謊言
TTITLE9=新生 
EXTD=YEAR: 1989
EXTT0=
EXTT1=
EXTT2=
EXTT3=
EXTT4=
EXTT5=
EXTT6=
EXTT7=
EXTT8=
EXTT9=
PLAYORDER=
